<svg width="651" height="647" viewBox="0 0 651 647" fill="none" xmlns="http://www.w3.org/2000/svg">
<g filter="url(#filter0_d)">
<path d="M325.658 320.67L325.329 322.874L325 320.67L325.329 320.621L325.658 320.67Z" fill="#080B35"/>
<path fill-rule="evenodd" clip-rule="evenodd" d="M325 628C493.447 628 630 491.447 630 323C630 154.553 493.447 18 325 18C156.553 18 20 154.553 20 323C20 491.447 156.553 628 325 628ZM325.658 46L325.329 46.0002L325 46C186.993 46.3207 72.6944 147.566 52 279.841L325 320.572V320.67V323H325.658V320.67V320.572L598.658 279.841C577.963 147.566 463.665 46.3207 325.658 46Z" fill="#080B35"/>
</g>
<defs>
<filter id="filter0_d" x="16" y="18" width="618" height="618" filterUnits="userSpaceOnUse" color-interpolation-filters="sRGB">
<feFlood flood-opacity="0" result="BackgroundImageFix"/>
<feColorMatrix in="SourceAlpha" type="matrix" values="0 0 0 0 0 0 0 0 0 0 0 0 0 0 0 0 0 0 127 0"/>
<feOffset dy="4"/>
<feGaussianBlur stdDeviation="2"/>
<feColorMatrix type="matrix" values="0 0 0 0 0 0 0 0 0 0 0 0 0 0 0 0 0 0 0.25 0"/>
<feBlend mode="normal" in2="BackgroundImageFix" result="effect1_dropShadow"/>
<feBlend mode="normal" in="SourceGraphic" in2="effect1_dropShadow" result="shape"/>
</filter>
</defs>
</svg>
