<svg width="651" height="647" viewBox="0 0 651 647" fill="none" xmlns="http://www.w3.org/2000/svg">
<g filter="url(#filter0_d)">
<path d="M382 323C382 354.48 356.48 380 325 380C293.52 380 268 354.48 268 323C268 291.52 293.52 266 325 266C356.48 266 382 291.52 382 323Z" fill="#CA2333"/>
<path d="M319 123.5C319 120.462 321.462 118 324.5 118C327.538 118 330 120.462 330 123.5V317.5C330 320.538 327.538 323 324.5 323C321.462 323 319 320.538 319 317.5V123.5Z" fill="#CA2333"/>
</g>
<defs>
<filter id="filter0_d" x="264" y="118" width="122" height="270" filterUnits="userSpaceOnUse" color-interpolation-filters="sRGB">
<feFlood flood-opacity="0" result="BackgroundImageFix"/>
<feColorMatrix in="SourceAlpha" type="matrix" values="0 0 0 0 0 0 0 0 0 0 0 0 0 0 0 0 0 0 127 0"/>
<feOffset dy="4"/>
<feGaussianBlur stdDeviation="2"/>
<feColorMatrix type="matrix" values="0 0 0 0 0 0 0 0 0 0 0 0 0 0 0 0 0 0 0.25 0"/>
<feBlend mode="normal" in2="BackgroundImageFix" result="effect1_dropShadow"/>
<feBlend mode="normal" in="SourceGraphic" in2="effect1_dropShadow" result="shape"/>
</filter>
</defs>
</svg>
