<svg width="652" height="648" fill="none" xmlns="http://www.w3.org/2000/svg"><path d="M325.083 1.013c-3.424-.174-7.211 1.403-10.796 6.175-3.883 5.168-7.851 6.25-11.169 5.632-3.349-.624-6.163-3-7.673-5.038l.017-.016c-1.854-1.972-5.184-4.19-8.943-4.423-3.818-.235-7.951 1.587-11.325 7.454-3.223 5.603-7.028 7.162-10.397 6.954-3.406-.21-6.495-2.232-8.241-4.073l.003-.003-.026-.021-.012-.013-.001.002c-2.087-1.72-5.642-3.493-9.377-3.265-3.819.233-7.698 2.546-10.33 8.782-2.514 5.955-6.1 7.967-9.469 8.172-3.429.21-6.763-1.443-8.716-3.067l-.023.028c-2.28-1.457-6.035-2.79-9.725-2.105-3.761.699-7.328 3.469-9.178 9.98-1.766 6.218-5.079 8.653-8.398 9.27-3.344.62-6.82-.582-8.962-1.939l.016-.033c-2.439-1.174-6.344-2.048-9.935-.914-3.648 1.153-6.85 4.338-7.89 11.026-.994 6.387-3.985 9.208-7.204 10.225-3.276 1.035-6.911.24-9.199-.861l-.008.015c-2.565-.858-6.525-1.236-9.933.321-3.479 1.59-6.268 5.143-6.483 11.907-.205 6.461-2.829 9.627-5.899 11.03-3.083 1.409-6.731 1.093-9.139.302l.016-.074c-2.651-.548-6.651-.45-9.86 1.522-3.26 2.002-5.594 5.868-4.983 12.609.584 6.438-1.634 9.9-4.51 11.667-2.902 1.783-6.584 1.906-9.07 1.407l.002-.023c-2.698-.22-6.656.366-9.6 2.714-2.991 2.386-4.836 6.508-3.406 13.124 1.366 6.318-.412 10.025-3.051 12.13-2.668 2.128-6.315 2.698-8.845 2.504v-.004l-.033.001-.017-.001v.002c-2.702.122-6.528 1.191-9.146 3.865-2.677 2.733-4.004 7.05-1.776 13.441 2.128 6.104.816 10.001-1.546 12.413-2.404 2.454-5.985 3.463-8.523 3.567l.001.037c-2.668.447-6.348 1.977-8.626 4.959-2.322 3.04-3.111 7.487-.118 13.557 2.859 5.798 2.033 9.826-.016 12.508-2.065 2.703-5.45 4.142-7.948 4.572l-.01-.036c-2.598.764-6.08 2.734-7.984 5.983-1.934 3.301-2.174 7.811 1.538 13.47 3.545 5.406 3.218 9.505 1.511 12.417-1.736 2.964-4.966 4.812-7.402 5.529l.004.016c-2.478 1.084-5.67 3.458-7.154 6.898-1.516 3.513-1.203 8.019 3.174 13.182 4.18 4.931 4.355 9.039 3.018 12.138-.99 2.293-2.833 4.096-4.662 5.298l-.208-.341c-2.31 1.412-5.163 4.217-6.159 7.849-1.011 3.689-.074 8.107 4.979 12.61 4.826 4.301 5.572 8.345 4.68 11.6-.901 3.285-3.504 5.891-5.66 7.226l-.015-.018c-2.12 1.683-4.61 4.816-5.154 8.542-.554 3.785.917 8.056 6.482 11.908 5.314 3.679 6.55 7.601 6.061 10.941-.494 3.377-2.766 6.286-4.746 7.872l-.003-.003-.023.024-.014.011.001.002c-1.889 1.935-3.95 5.33-4.036 9.071-.086 3.825 1.895 7.884 7.889 11.027 5.725 3.002 7.43 6.744 7.353 10.119-.078 3.434-2.003 6.618-3.784 8.429l.026.025c-1.643 2.15-3.284 5.782-2.91 9.515.382 3.807 2.845 7.593 9.179 9.979 6.049 2.279 8.199 5.785 8.536 9.143.34 3.385-1.149 6.748-2.68 8.769l-.032-.018c-1.373 2.332-2.57 6.15-1.74 9.823.844 3.731 3.75 7.188 10.328 8.784 6.282 1.523 8.844 4.74 9.589 8.032.758 3.351-.338 6.907-1.627 9.095l.015.009c-1.069 2.485-1.776 6.399-.51 9.925 1.294 3.6 4.602 6.676 11.325 7.455 6.421.744 9.357 3.623 10.499 6.799 1.161 3.233.51 6.897-.502 9.227l.046.02c-.762 2.596-.991 6.58.703 9.933 1.724 3.415 5.383 6.063 12.152 6.013 6.463-.048 9.73 2.45 11.251 5.463 1.536 3.041 1.354 6.72.65 9.156l-.023-.003c-.444 2.67-.188 6.663 1.908 9.792 2.128 3.178 6.084 5.359 12.795 4.483 6.409-.837 9.957 1.244 11.835 4.048 1.899 2.836 2.164 6.517 1.76 9.022h-.004l-.001.033-.003.017.002.001c-.102 2.703.646 6.603 3.093 9.435 2.501 2.894 6.693 4.575 13.247 2.886 6.259-1.614 10.034.017 12.241 2.571 2.246 2.599 2.954 6.252 2.848 8.79l.036.002c.224 2.696 1.443 6.49 4.225 9.008 2.837 2.567 7.203 3.722 13.501 1.243 6.015-2.367 9.961-1.21 12.464 1.055 2.522 2.282 3.675 5.775 3.896 8.301l-.037.007c.546 2.651 2.219 6.286 5.299 8.453 3.129 2.201 7.604 2.815 13.552-.414 5.681-3.084 9.739-2.418 12.499-.476 2.81 1.977 4.383 5.349 4.895 7.837l.017-.004c.874 2.56 2.975 5.938 6.28 7.703 3.375 1.802 7.891 1.864 13.399-2.068 5.262-3.756 9.37-3.59 12.348-2 2.991 1.597 4.953 4.691 5.784 7.085l-.064.031c1.173 2.44 3.677 5.56 7.191 6.916 3.569 1.377 8.059.888 13.047-3.687 4.763-4.37 8.862-4.706 12.011-3.491 3.178 1.226 5.509 4.078 6.62 6.357l-.019.013c1.461 2.278 4.328 5.07 7.981 5.986 3.711.931 8.107-.103 12.499-5.253 2.941-3.449 5.8-4.89 8.374-5.16v-1.006c-2.881.271-6.009 1.852-9.135 5.517-4.194 4.918-8.221 5.753-11.495 4.932-3.251-.816-5.881-3.295-7.281-5.4l.006-.003c-1.172-2.44-3.677-5.561-7.19-6.916-3.569-1.377-8.059-.888-13.047 3.687-4.764 4.369-8.862 4.706-12.011 3.491-3.116-1.203-5.418-3.967-6.555-6.224l.048-.016c-.866-2.564-2.971-5.967-6.293-7.741-3.375-1.802-7.891-1.864-13.4 2.068-5.261 3.756-9.369 3.59-12.347 2-3.03-1.618-5.004-4.773-5.817-7.179l-.005.002c-.579-2.636-2.246-6.17-5.265-8.294-3.129-2.202-7.604-2.815-13.552.414-5.681 3.084-9.739 2.417-12.499.475-2.739-1.927-4.303-5.18-4.855-7.647l.02-.001c-.219-2.698-1.436-6.51-4.228-9.037-2.837-2.567-7.203-3.722-13.501-1.243-6.015 2.367-9.961 1.21-12.464-1.055-2.547-2.305-3.697-5.844-3.901-8.375l-.027.002c.081-2.698-.677-6.541-3.095-9.339-2.502-2.894-6.694-4.575-13.248-2.886-6.259 1.614-10.034-.017-12.241-2.571-2.22-2.569-2.937-6.167-2.851-8.701.424-2.669.153-6.612-1.921-9.709-2.129-3.179-6.084-5.36-12.796-4.483-6.41.836-9.956-1.244-11.835-4.049-1.865-2.785-2.154-6.388-1.78-8.888l.006.002c.766-2.597 1-6.591-.698-9.953-1.724-3.414-5.384-6.062-12.152-6.012-6.464.047-9.73-2.451-11.252-5.464-1.548-3.066-1.35-6.782-.63-9.218l-.04-.011c1.047-2.489 1.724-6.353.472-9.838-1.294-3.6-4.601-6.675-11.325-7.455-6.42-.744-9.357-3.623-10.498-6.799-1.162-3.233-.51-6.897.502-9.226l-.005-.003c1.338-2.343 2.472-6.082 1.658-9.683-.844-3.731-3.75-7.188-10.328-8.783-6.282-1.524-8.844-4.74-9.588-8.033-.739-3.266.283-6.727 1.529-8.927l.015.012c1.649-2.147 3.303-5.791 2.927-9.538-.382-3.806-2.845-7.592-9.179-9.978-6.049-2.28-8.199-5.785-8.536-9.143-.343-3.419 1.179-6.814 2.725-8.829l-.02-.016c1.87-1.947 3.884-5.306 3.968-9.003.087-3.824-1.895-7.883-7.889-11.027-5.724-3.002-7.43-6.744-7.353-10.118.077-3.394 1.959-6.544 3.722-8.365 2.106-1.695 4.55-4.802 5.088-8.49.554-3.785-.916-8.056-6.481-11.908-5.315-3.679-6.55-7.602-6.062-10.941.485-3.318 2.687-6.183 4.642-7.787l.003.005c2.31-1.411 5.163-4.217 6.16-7.848 1.01-3.69.073-8.108-4.98-12.611-4.825-4.301-5.572-8.345-4.68-11.6.647-2.356 2.168-4.363 3.773-5.802l.018.043c2.484-1.076 5.7-3.457 7.192-6.915 1.516-3.512 1.203-8.018-3.174-13.181-4.179-4.931-4.355-9.039-3.018-12.138 1.361-3.155 4.34-5.384 6.671-6.393l-.002-.005c2.579-.796 5.962-2.752 7.828-5.937 1.934-3.3 2.174-7.811-1.538-13.47-3.545-5.405-3.218-9.504-1.511-12.417 1.692-2.889 4.804-4.718 7.217-5.472l.003.019c2.67-.442 6.368-1.971 8.654-4.964 2.322-3.04 3.111-7.487.118-13.557-2.859-5.798-2.033-9.826.016-12.508 2.085-2.73 5.516-4.17 8.022-4.584l-.004-.026c2.696-.144 6.462-1.219 9.05-3.861 2.676-2.733 4.003-7.05 1.775-13.441-2.128-6.104-.816-10.001 1.546-12.412 2.376-2.426 5.902-3.44 8.434-3.564 2.695.201 6.603-.397 9.516-2.721 2.991-2.386 4.836-6.508 3.406-13.124-1.366-6.318.412-10.025 3.051-12.13 2.621-2.09 6.187-2.678 8.71-2.513l-.001.006c2.65.548 6.65.45 9.86-1.521 3.259-2.002 5.594-5.869 4.982-12.61-.584-6.437 1.634-9.9 4.51-11.666 2.845-1.747 6.438-1.9 8.921-1.436l-.017.051c2.564.867 6.546 1.257 9.971-.307 3.48-1.59 6.269-5.143 6.484-11.908.205-6.46 2.829-9.627 5.899-11.03 3.125-1.427 6.83-1.083 9.236-.27l.001-.005c2.447 1.139 6.269 1.956 9.788.845 3.648-1.153 6.85-4.338 7.891-11.026.994-6.387 3.985-9.209 7.204-10.225 3.193-1.01 6.728-.28 9.024.778l-.011.017c2.277 1.463 6.046 2.807 9.749 2.12 3.761-.699 7.328-3.47 9.177-9.98 1.766-6.218 5.08-8.653 8.399-9.27 3.377-.627 6.888.606 9.025 1.979l.014-.023c2.097 1.701 5.611 3.429 9.303 3.204 3.818-.233 7.697-2.547 10.329-8.782 2.514-5.955 6.1-7.967 9.47-8.172 3.389-.207 6.685 1.405 8.646 3.01 1.865 1.957 5.165 4.132 8.885 4.362 3.819.235 7.951-1.586 11.326-7.453 3.222-5.604 7.028-7.162 10.397-6.954 3.346.206 6.385 2.161 8.147 3.975l-.005.004c1.599 2.184 4.633 4.793 8.335 5.482 3.761.7 8.085-.603 12.151-6.014 3.436-4.573 6.937-5.947 9.997-5.774V1.013z" fill="#fff"/><path d="M325.083 1.338c3.424-.175 7.211 1.403 10.797 6.175 3.882 5.168 7.85 6.25 11.168 5.632 3.349-.624 6.163-3 7.673-5.038l-.017-.016c1.854-1.972 5.184-4.19 8.943-4.423 3.818-.235 7.951 1.587 11.325 7.454 3.223 5.603 7.028 7.161 10.397 6.954 3.406-.21 6.495-2.232 8.241-4.073l-.003-.003.026-.021.012-.013.001.002c2.087-1.721 5.642-3.493 9.377-3.265 3.819.233 7.698 2.546 10.33 8.782 2.514 5.955 6.1 7.967 9.469 8.172 3.429.21 6.763-1.443 8.716-3.067l.023.028c2.28-1.457 6.035-2.79 9.725-2.105 3.762.698 7.328 3.469 9.178 9.98 1.766 6.218 5.079 8.653 8.398 9.27 3.345.62 6.82-.582 8.962-1.939l-.016-.033c2.439-1.174 6.344-2.048 9.935-.914 3.648 1.152 6.85 4.337 7.89 11.025.994 6.387 3.985 9.21 7.204 10.226 3.276 1.035 6.911.24 9.199-.861l.008.015c2.565-.858 6.525-1.236 9.933.32 3.479 1.59 6.268 5.143 6.483 11.908.205 6.461 2.829 9.627 5.899 11.03 3.083 1.408 6.731 1.092 9.139.302l-.016-.074c2.651-.548 6.651-.45 9.86 1.522 3.26 2.002 5.594 5.868 4.983 12.609-.584 6.437 1.634 9.9 4.51 11.667 2.902 1.782 6.584 1.906 9.07 1.407l-.001-.023c2.697-.22 6.655.366 9.6 2.714 2.99 2.386 4.835 6.508 3.405 13.124-1.366 6.318.412 10.025 3.051 12.13 2.668 2.128 6.315 2.698 8.845 2.503v-.003l.033.001.017-.002.001.003c2.701.122 6.527 1.191 9.145 3.865 2.677 2.733 4.004 7.05 1.776 13.441-2.128 6.104-.816 10.001 1.546 12.412 2.404 2.455 5.985 3.464 8.523 3.568l-.001.037c2.668.447 6.348 1.976 8.626 4.958 2.322 3.041 3.111 7.488.118 13.558-2.859 5.798-2.033 9.826.016 12.508 2.065 2.703 5.449 4.142 7.948 4.572l.011-.036c2.597.764 6.08 2.734 7.983 5.983 1.934 3.301 2.174 7.811-1.538 13.47-3.545 5.405-3.218 9.504-1.511 12.417 1.736 2.964 4.966 4.812 7.403 5.529l-.005.016c2.478 1.084 5.67 3.458 7.154 6.898 1.516 3.513 1.203 8.018-3.174 13.182-4.179 4.931-4.355 9.039-3.018 12.138.989 2.292 2.833 4.096 4.662 5.298l.208-.341c2.31 1.411 5.163 4.217 6.159 7.849 1.012 3.689.074 8.107-4.979 12.61-4.826 4.301-5.572 8.345-4.68 11.6.901 3.285 3.504 5.891 5.661 7.226l.014-.018c2.12 1.683 4.609 4.816 5.154 8.542.554 3.785-.917 8.056-6.481 11.908-5.315 3.679-6.55 7.601-6.062 10.941.494 3.377 2.766 6.286 4.746 7.872l.003-.003.023.024.014.011-.001.002c1.889 1.935 3.951 5.33 4.036 9.071.086 3.825-1.895 7.884-7.889 11.027-5.725 3.002-7.43 6.744-7.353 10.118.078 3.435 2.003 6.619 3.784 8.43l-.026.025c1.643 2.15 3.284 5.781 2.91 9.515-.382 3.807-2.845 7.593-9.179 9.979-6.049 2.279-8.199 5.784-8.536 9.143-.339 3.385 1.149 6.748 2.68 8.769l.032-.019c1.373 2.333 2.57 6.151 1.74 9.824-.844 3.731-3.751 7.188-10.328 8.783-6.282 1.524-8.844 4.74-9.589 8.033-.757 3.35.338 6.907 1.627 9.095l-.015.009c1.069 2.485 1.777 6.399.51 9.925-1.294 3.6-4.602 6.676-11.325 7.455-6.421.744-9.357 3.623-10.499 6.799-1.161 3.233-.509 6.897.502 9.226l-.046.02c.762 2.597.991 6.581-.703 9.934-1.724 3.415-5.383 6.062-12.152 6.013-6.463-.048-9.73 2.45-11.251 5.463-1.536 3.041-1.354 6.719-.65 9.156l.023-.004c.444 2.671.188 6.664-1.907 9.793-2.129 3.178-6.084 5.359-12.796 4.483-6.409-.837-9.956 1.244-11.835 4.048-1.899 2.835-2.164 6.517-1.76 9.022h.004l.001.033.003.017-.002.001c.102 2.702-.646 6.603-3.093 9.435-2.501 2.894-6.693 4.575-13.247 2.886-6.259-1.614-10.034.017-12.241 2.571-2.246 2.599-2.954 6.252-2.848 8.79l-.036.001c-.224 2.697-1.443 6.491-4.225 9.009-2.837 2.567-7.203 3.722-13.501 1.243-6.015-2.367-9.961-1.21-12.464 1.055-2.522 2.282-3.674 5.774-3.896 8.301l.037.007c-.546 2.651-2.219 6.286-5.299 8.453-3.129 2.201-7.604 2.815-13.552-.415-5.681-3.084-9.738-2.417-12.499-.475-2.81 1.977-4.383 5.349-4.895 7.837l-.017-.004c-.874 2.56-2.975 5.938-6.28 7.703-3.375 1.802-7.891 1.864-13.399-2.068-5.262-3.756-9.37-3.59-12.348-2-2.991 1.597-4.952 4.691-5.784 7.085l.064.031c-1.172 2.439-3.677 5.56-7.19 6.916-3.57 1.377-8.06.887-13.048-3.687-4.763-4.37-8.862-4.706-12.011-3.491-3.178 1.226-5.509 4.077-6.62 6.357l.019.013c-1.461 2.278-4.328 5.069-7.981 5.986-3.711.931-8.107-.103-12.499-5.253-2.941-3.449-5.8-4.89-8.374-5.16v-1.006c2.881.271 6.009 1.852 9.135 5.517 4.194 4.918 8.221 5.753 11.495 4.932 3.251-.816 5.881-3.295 7.281-5.401l-.006-.003c1.172-2.439 3.677-5.56 7.19-6.915 3.57-1.378 8.059-.888 13.047 3.687 4.764 4.369 8.862 4.706 12.012 3.491 3.115-1.203 5.417-3.968 6.554-6.224l-.048-.016c.866-2.565 2.971-5.967 6.293-7.741 3.375-1.803 7.891-1.865 13.4 2.068 5.261 3.755 9.369 3.59 12.347 2 3.03-1.619 5.004-4.773 5.817-7.179l.005.001c.579-2.636 2.247-6.17 5.265-8.294 3.129-2.201 7.604-2.815 13.552.415 5.681 3.084 9.739 2.417 12.499.475 2.739-1.927 4.303-5.18 4.855-7.647l-.02-.001c.219-2.698 1.436-6.51 4.228-9.037 2.837-2.567 7.203-3.722 13.501-1.243 6.015 2.367 9.961 1.21 12.464-1.055 2.547-2.305 3.697-5.844 3.901-8.375l.027.002c-.081-2.699.678-6.541 3.095-9.339 2.502-2.894 6.694-4.575 13.248-2.886 6.259 1.614 10.034-.017 12.241-2.571 2.22-2.569 2.937-6.167 2.851-8.701-.424-2.669-.153-6.613 1.921-9.709 2.129-3.179 6.084-5.36 12.796-4.484 6.409.837 9.956-1.243 11.835-4.048 1.865-2.785 2.154-6.388 1.781-8.889l-.007.002c-.766-2.596-1-6.59.698-9.952 1.725-3.415 5.384-6.062 12.152-6.012 6.464.047 9.73-2.451 11.252-5.464 1.548-3.066 1.35-6.782.631-9.218l.04-.012c-1.048-2.488-1.725-6.352-.473-9.837 1.294-3.6 4.602-6.676 11.325-7.455 6.421-.744 9.357-3.623 10.498-6.799 1.162-3.233.51-6.897-.502-9.226l.006-.003c-1.339-2.343-2.473-6.083-1.659-9.683.844-3.731 3.75-7.188 10.328-8.783 6.282-1.524 8.844-4.74 9.588-8.033.739-3.266-.283-6.727-1.529-8.927l-.015.012c-1.648-2.147-3.303-5.791-2.927-9.538.382-3.806 2.845-7.592 9.179-9.979 6.049-2.279 8.199-5.784 8.536-9.143.343-3.418-1.179-6.814-2.725-8.828l.021-.016c-1.87-1.947-3.885-5.306-3.969-9.003-.087-3.825 1.895-7.883 7.889-11.027 5.724-3.002 7.429-6.744 7.353-10.118-.077-3.395-1.958-6.544-3.722-8.365-2.105-1.696-4.549-4.802-5.088-8.49-.554-3.786.916-8.056 6.481-11.908 5.315-3.68 6.55-7.602 6.062-10.942-.485-3.317-2.687-6.183-4.642-7.787l-.003.006c-2.31-1.411-5.163-4.217-6.159-7.848-1.012-3.69-.074-8.108 4.979-12.611 4.825-4.301 5.572-8.345 4.679-11.6-.646-2.356-2.167-4.363-3.772-5.802l-.018.042c-2.484-1.075-5.7-3.456-7.192-6.914-1.516-3.512-1.203-8.018 3.174-13.181 4.179-4.931 4.355-9.039 3.018-12.139-1.361-3.154-4.341-5.383-6.671-6.392l.002-.006c-2.579-.795-5.962-2.751-7.828-5.936-1.934-3.301-2.174-7.811 1.538-13.47 3.545-5.405 3.218-9.504 1.512-12.417-1.693-2.889-4.805-4.718-7.218-5.472l-.003.019c-2.67-.442-6.368-1.971-8.654-4.964-2.322-3.04-3.111-7.487-.118-13.557 2.859-5.798 2.033-9.826-.016-12.508-2.085-2.73-5.516-4.17-8.022-4.584l.004-.026c-2.696-.144-6.462-1.219-9.049-3.861-2.677-2.733-4.004-7.05-1.776-13.441 2.128-6.104.816-10.001-1.546-12.412-2.376-2.426-5.902-3.44-8.434-3.564-2.695.201-6.603-.397-9.516-2.721-2.991-2.386-4.836-6.508-3.406-13.124 1.366-6.318-.412-10.025-3.051-12.13-2.621-2.09-6.187-2.678-8.71-2.513l.001.006c-2.651.548-6.651.45-9.859-1.521-3.26-2.003-5.595-5.869-4.983-12.61.584-6.437-1.634-9.9-4.51-11.666-2.845-1.748-6.438-1.901-8.921-1.436l.017.051c-2.564.867-6.546 1.257-9.971-.308-3.48-1.59-6.269-5.142-6.483-11.907-.206-6.46-2.83-9.627-5.9-11.03-3.124-1.427-6.83-1.083-9.236-.27l-.001-.005c-2.447 1.139-6.269 1.956-9.788.844-3.648-1.152-6.85-4.337-7.891-11.025-.994-6.387-3.985-9.209-7.204-10.225-3.193-1.01-6.727-.28-9.023.778l.01.016c-2.277 1.464-6.046 2.808-9.749 2.12-3.761-.698-7.328-3.468-9.177-9.98-1.766-6.217-5.08-8.652-8.398-9.269-3.378-.627-6.889.606-9.026 1.978l-.014-.022c-2.096 1.701-5.611 3.429-9.303 3.203-3.818-.233-7.697-2.546-10.329-8.781-2.514-5.956-6.1-7.967-9.47-8.173-3.388-.206-6.685 1.405-8.646 3.01-1.865 1.958-5.165 4.133-8.885 4.363-3.819.235-7.951-1.587-11.326-7.454-3.222-5.603-7.028-7.161-10.397-6.954-3.346.207-6.385 2.162-8.147 3.976l.005.004c-1.599 2.183-4.633 4.792-8.335 5.482-3.761.7-8.085-.604-12.151-6.015-3.436-4.572-6.937-5.946-9.997-5.774V1.338z" fill="#fff"/><path d="M325.083 635.438v.325c2.881.271 6.009 1.852 9.135 5.517 4.194 4.918 8.221 5.753 11.495 4.932 3.251-.816 5.881-3.295 7.281-5.401l-.006-.003c1.172-2.439 3.677-5.56 7.19-6.915 3.57-1.378 8.059-.888 13.047 3.687 4.764 4.369 8.862 4.706 12.012 3.491 3.115-1.203 5.417-3.968 6.554-6.224l-.048-.016c.866-2.565 2.971-5.967 6.293-7.741 3.375-1.803 7.891-1.865 13.4 2.068 5.261 3.755 9.369 3.59 12.347 2 3.03-1.619 5.004-4.773 5.817-7.179l.005.001c.579-2.636 2.247-6.17 5.265-8.294 3.129-2.201 7.604-2.815 13.552.415 5.681 3.084 9.739 2.417 12.499.475 2.739-1.927 4.303-5.18 4.855-7.647l-.02-.001c.219-2.698 1.436-6.51 4.228-9.037 2.837-2.567 7.203-3.722 13.501-1.243 6.015 2.367 9.961 1.21 12.464-1.055 2.547-2.305 3.697-5.844 3.901-8.375l.027.002c-.081-2.699.678-6.541 3.095-9.339 2.502-2.894 6.694-4.575 13.248-2.886 6.259 1.614 10.034-.017 12.241-2.571 2.22-2.569 2.937-6.167 2.851-8.701-.424-2.669-.153-6.613 1.921-9.709 2.129-3.179 6.084-5.36 12.796-4.484 6.409.837 9.956-1.243 11.835-4.048 1.865-2.785 2.154-6.388 1.781-8.889l-.007.002c-.766-2.596-1-6.59.698-9.952 1.725-3.415 5.384-6.062 12.152-6.012 6.464.047 9.73-2.451 11.252-5.464 1.548-3.066 1.35-6.782.631-9.218l.04-.012c-1.048-2.488-1.725-6.352-.473-9.837 1.294-3.6 4.602-6.676 11.325-7.455 6.421-.744 9.357-3.623 10.498-6.799 1.162-3.233.51-6.897-.502-9.226l.006-.003c-1.339-2.343-2.473-6.083-1.659-9.683.844-3.731 3.75-7.188 10.328-8.783 6.282-1.524 8.844-4.74 9.588-8.033.739-3.266-.283-6.727-1.529-8.927l-.015.012c-1.648-2.147-3.303-5.791-2.927-9.538.382-3.806 2.845-7.592 9.179-9.979 6.049-2.279 8.199-5.784 8.536-9.143.343-3.418-1.179-6.814-2.725-8.828l.021-.016c-1.87-1.947-3.885-5.306-3.969-9.003-.087-3.825 1.895-7.883 7.889-11.027 5.724-3.002 7.429-6.744 7.353-10.118-.077-3.395-1.958-6.544-3.722-8.365-2.105-1.696-4.549-4.802-5.088-8.49-.554-3.786.916-8.056 6.481-11.908 5.315-3.68 6.55-7.602 6.062-10.942-.485-3.317-2.687-6.183-4.642-7.787l-.003.006c-2.31-1.411-5.163-4.217-6.159-7.848-1.012-3.69-.074-8.108 4.979-12.611 4.825-4.301 5.572-8.345 4.679-11.6-.646-2.356-2.167-4.363-3.772-5.802l-.018.042c-2.484-1.075-5.7-3.456-7.192-6.914-1.516-3.512-1.203-8.018 3.174-13.181 4.179-4.931 4.355-9.039 3.018-12.139-1.361-3.154-4.341-5.383-6.671-6.392l.002-.006c-2.579-.795-5.962-2.751-7.828-5.936-1.934-3.301-2.174-7.811 1.538-13.47 3.545-5.405 3.218-9.504 1.512-12.417-1.693-2.889-4.805-4.718-7.218-5.472l-.003.019c-2.67-.442-6.368-1.971-8.654-4.964-2.322-3.04-3.111-7.487-.118-13.557 2.859-5.798 2.033-9.826-.016-12.508-2.085-2.73-5.516-4.17-8.022-4.584l.004-.026c-2.696-.144-6.462-1.219-9.049-3.861-2.677-2.733-4.004-7.05-1.776-13.441 2.128-6.104.816-10.001-1.546-12.412-2.376-2.426-5.902-3.44-8.434-3.564-2.695.201-6.603-.397-9.516-2.721-2.991-2.386-4.836-6.508-3.406-13.124 1.366-6.318-.412-10.025-3.051-12.13-2.621-2.09-6.187-2.678-8.71-2.513l.001.006c-2.651.548-6.651.45-9.859-1.521-3.26-2.003-5.595-5.869-4.983-12.61.584-6.437-1.634-9.9-4.51-11.666-2.845-1.748-6.438-1.901-8.921-1.436l.017.051c-2.564.867-6.546 1.257-9.971-.308-3.48-1.59-6.269-5.142-6.483-11.907-.206-6.46-2.83-9.627-5.9-11.03-3.124-1.427-6.83-1.083-9.236-.27l-.001-.005c-2.447 1.139-6.269 1.956-9.788.844-3.648-1.152-6.85-4.337-7.891-11.025-.994-6.387-3.985-9.209-7.204-10.225-3.193-1.01-6.727-.28-9.023.778l.01.016c-2.277 1.464-6.046 2.808-9.749 2.12-3.761-.698-7.328-3.468-9.177-9.98-1.766-6.217-5.08-8.652-8.398-9.269-3.378-.627-6.889.606-9.026 1.978l-.014-.022c-2.096 1.701-5.611 3.429-9.303 3.203-3.818-.233-7.697-2.546-10.329-8.781-2.514-5.956-6.1-7.967-9.47-8.173-3.388-.206-6.685 1.405-8.646 3.01-1.865 1.958-5.165 4.133-8.885 4.363-3.819.235-7.951-1.587-11.326-7.454-3.222-5.603-7.028-7.161-10.397-6.954-3.346.207-6.385 2.162-8.147 3.976l.005.004c-1.599 2.183-4.633 4.792-8.335 5.482-3.761.7-8.085-.604-12.151-6.015-3.436-4.572-6.937-5.946-9.997-5.774v-.324c-3.06-.173-6.561 1.201-9.997 5.774-4.066 5.41-8.39 6.714-12.151 6.014-3.702-.69-6.736-3.298-8.335-5.482l.005-.004c-1.762-1.814-4.801-3.769-8.147-3.975-3.369-.208-7.175 1.35-10.397 6.954-3.375 5.867-7.507 7.688-11.326 7.453-3.72-.23-7.02-2.405-8.885-4.362-1.961-1.605-5.257-3.217-8.646-3.01-3.37.205-6.956 2.217-9.47 8.172-2.632 6.235-6.511 8.549-10.329 8.782-3.692.225-7.206-1.503-9.303-3.204l-.014.023c-2.137-1.373-5.648-2.606-9.025-1.978-3.319.616-6.633 3.05-8.399 9.269-1.849 6.51-5.416 9.281-9.177 9.98-3.703.687-7.472-.657-9.749-2.12l.011-.017c-2.296-1.058-5.831-1.787-9.024-.778-3.219 1.016-6.21 3.838-7.204 10.225-1.041 6.688-4.243 9.873-7.891 11.026-3.519 1.111-7.341.294-9.788-.845l-.001.005c-2.406-.813-6.111-1.157-9.236.27-3.07 1.403-5.694 4.57-5.899 11.03-.215 6.765-3.004 10.318-6.484 11.908-3.425 1.564-7.407 1.174-9.971.307l.017-.051c-2.483-.465-6.076-.311-8.921 1.436-2.876 1.767-5.094 5.23-4.51 11.667.612 6.74-1.723 10.607-4.983 12.609-3.208 1.971-7.208 2.069-9.86 1.521l.002-.006c-2.523-.165-6.089.423-8.71 2.513-2.639 2.105-4.417 5.812-3.051 12.13 1.43 6.616-.415 10.738-3.406 13.124-2.913 2.324-6.82 2.922-9.516 2.721-2.532.124-6.058 1.138-8.434 3.564-2.362 2.411-3.674 6.308-1.546 12.412 2.228 6.391.901 10.708-1.776 13.441-2.587 2.642-6.353 3.717-9.049 3.861l.004.026c-2.506.414-5.937 1.854-8.022 4.584-2.05 2.682-2.875 6.71-.016 12.508 2.993 6.07 2.204 10.517-.118 13.557-2.286 2.993-5.984 4.522-8.654 4.964l-.003-.019c-2.413.754-5.525 2.583-7.217 5.472-1.707 2.913-2.034 7.012 1.511 12.417 3.712 5.659 3.472 10.17 1.538 13.47-1.866 3.185-5.25 5.141-7.828 5.937l.002.005c-2.33 1.009-5.31 3.238-6.67 6.393-1.338 3.099-1.162 7.207 3.018 12.138 4.376 5.163 4.689 9.669 3.173 13.181-1.492 3.458-4.708 5.839-7.192 6.915l-.018-.043c-1.605 1.439-3.126 3.446-3.772 5.802-.893 3.255-.146 7.299 4.68 11.6 5.052 4.503 5.99 8.921 4.978 12.611-.996 3.631-3.849 6.437-6.159 7.848l-.003-.005c-1.955 1.604-4.157 4.469-4.642 7.787-.488 3.339.747 7.262 6.062 10.941 5.565 3.852 7.035 8.123 6.482 11.908-.54 3.688-2.983 6.795-5.089 8.49-1.763 1.821-3.645 4.971-3.722 8.365-.076 3.374 1.629 7.116 7.353 10.118 5.994 3.144 7.976 7.203 7.889 11.027-.084 3.697-2.099 7.056-3.969 9.003l.021.016c-1.546 2.015-3.068 5.41-2.725 8.829.337 3.358 2.487 6.863 8.536 9.143 6.334 2.386 8.797 6.172 9.179 9.978.376 3.747-1.278 7.391-2.927 9.538l-.015-.012c-1.246 2.2-2.268 5.661-1.53 8.927.745 3.293 3.307 6.509 9.59 8.033 6.577 1.595 9.483 5.052 10.327 8.783.814 3.601-.32 7.34-1.659 9.683l.006.003c-1.012 2.329-1.664 5.993-.502 9.226 1.141 3.176 4.077 6.055 10.498 6.799 6.724.78 10.031 3.855 11.325 7.455 1.252 3.485.576 7.349-.472 9.838l.04.011c-.72 2.436-.918 6.152.63 9.218 1.522 3.013 4.788 5.511 11.252 5.464 6.768-.05 10.428 2.598 12.152 6.012 1.698 3.362 1.464 7.356.698 9.953l-.007-.002c-.373 2.5-.084 6.103 1.781 8.888 1.879 2.805 5.426 4.885 11.835 4.049 6.712-.877 10.667 1.304 12.796 4.483 2.074 3.097 2.345 7.04 1.921 9.709-.086 2.534.631 6.132 2.851 8.701 2.207 2.554 5.982 4.185 12.241 2.571 6.554-1.689 10.746-.008 13.248 2.886 2.418 2.798 3.176 6.641 3.095 9.339l.027-.002c.204 2.531 1.354 6.07 3.901 8.375 2.503 2.265 6.449 3.422 12.464 1.055 6.298-2.479 10.664-1.324 13.501 1.243 2.792 2.527 4.009 6.339 4.228 9.037l-.02.001c.552 2.467 2.116 5.72 4.855 7.647 2.76 1.942 6.818 2.609 12.499-.475 5.948-3.229 10.423-2.616 13.552-.414 3.019 2.124 4.686 5.658 5.265 8.294l.005-.002c.813 2.406 2.787 5.561 5.817 7.179 2.978 1.59 7.086 1.756 12.347-2 5.509-3.932 10.025-3.87 13.4-2.068 3.322 1.774 5.427 5.177 6.293 7.741l-.048.016c1.137 2.257 3.439 5.021 6.555 6.224 3.149 1.215 7.247.878 12.011-3.491 4.988-4.575 9.478-5.064 13.047-3.687 3.513 1.355 6.018 4.476 7.19 6.916l-.006.003c1.4 2.105 4.03 4.584 7.281 5.4 3.274.821 7.301-.014 11.495-4.932 3.126-3.665 6.254-5.246 9.135-5.517z" fill="#fff"/><path fill-rule="evenodd" clip-rule="evenodd" d="M223.54 42.316c6.513-2.705 22.854-8.498 39.192-11.264l60.774 285.92L223.54 42.316zm-.734-.777l.147.35-.559.203L325 324l62.374 293.444.596-.126.112.675c16.849-2.808 33.754-8.855 40.112-11.532l-.28-.665.632-.23-102.582-281.842-62.359-293.376-.609.13-.078-.471c-16.849 2.808-33.754 8.855-40.112 11.532zm204.71 564.121L327.458 330.752l60.832 286.192c16.377-2.776 32.753-8.59 39.226-11.284z" fill="#FFD600"/><path d="M262.732 31.052c-16.338 2.766-32.679 8.56-39.192 11.264l99.966 274.656-60.774-285.92zM427.516 605.66L327.458 330.752l60.832 286.192c16.377-2.776 32.753-8.59 39.226-11.284z" fill="#FFD600"/><path fill-rule="evenodd" clip-rule="evenodd" d="M263.734 30.872c6.827-1.773 23.815-5.235 40.379-5.7l20.39 291.595-60.769-285.895zm-.618-.872l.097.367-.582.123 62.374 293.445 20.927 299.269.607-.043.018.685c17.076-.436 34.658-4.072 41.326-5.838l-.184-.697.657-.14-62.359-293.376-20.922-299.2-.62.044-.013-.477c-17.075.436-34.658 4.072-41.326 5.838zm124.207 587.121l-60.825-286.158 20.41 291.873c16.604-.469 33.63-3.948 40.415-5.715z" fill="#FF7613"/><path d="M304.113 25.172c-16.564.465-33.552 3.927-40.379 5.7l60.769 285.895-20.39-291.595zM387.323 617.121l-60.825-286.158 20.41 291.873c16.604-.469 33.63-3.948 40.415-5.715z" fill="#FF7613"/><path fill-rule="evenodd" clip-rule="evenodd" d="M305.131 25.133c7.007-.805 24.311-1.87 40.779-.026l-20.391 291.596-20.388-291.57zm-.491-.95l.045.377-.594.041 20.927 299.27-20.927 299.269.608.042-.078.681c16.971 1.944 34.888.791 41.737-.03l-.086-.716.671-.047-20.922-299.199 20.922-299.2-.621-.043.054-.474c-16.97-1.945-34.887-.792-41.736.03zm41.287 598.694l-20.408-291.839-20.409 291.873c16.508 1.846 33.852.771 40.817-.034z" fill="#72B4E3"/><path d="M345.91 25.107c-16.468-1.844-33.772-.78-40.779.026l20.388 291.57L345.91 25.107zM345.927 622.877l-20.408-291.839-20.409 291.873c16.508 1.846 33.852.771 40.817-.034z" fill="#72B4E3"/><path fill-rule="evenodd" clip-rule="evenodd" d="M346.923 25.21c7.051.179 24.335 1.533 40.386 5.65l-60.774 285.921 20.388-291.57zm-.354-1.008l-.008.38-.593-.042-20.927 299.269-62.374 293.444.596.127-.172.663c16.535 4.288 34.438 5.639 41.335 5.779l.015-.721.67.047 20.922-299.2 62.359-293.375-.608-.13.119-.461c-16.534-4.288-34.437-5.64-41.334-5.78zm-42.437 598.614l20.407-291.839-60.832 286.192c16.091 4.125 33.416 5.475 40.425 5.647z" fill="#FF7613"/><path d="M387.309 30.86c-16.051-4.117-33.335-5.471-40.386-5.65l-20.388 291.571 60.774-285.92zM304.132 622.816l20.407-291.839-60.832 286.192c16.091 4.125 33.416 5.475 40.425 5.647z" fill="#FF7613"/><path fill-rule="evenodd" clip-rule="evenodd" d="M388.298 31.104c6.957 1.158 23.885 4.904 39.206 11.216L327.529 317l60.769-285.895zm-.211-1.048l-.06.374-.582-.123-62.374 293.444-102.606 281.908.573.208-.263.633c15.777 6.547 33.318 10.377 40.129 11.476l.114-.712.658.139 62.359-293.376L428.617 42.185l-.584-.212.182-.44c-15.776-6.548-33.317-10.378-40.128-11.477zM262.753 616.938l60.824-286.159-100.07 274.941c15.36 6.325 32.329 10.072 39.246 11.218z" fill="#FFD600"/><path d="M427.504 42.32c-15.321-6.312-32.249-10.058-39.206-11.216l-60.769 285.895L427.504 42.32zM262.753 616.938l60.824-286.159-100.07 274.941c15.36 6.325 32.329 10.072 39.246 11.218z" fill="#FFD600"/><path d="M325.568 60.648h-5.232v-1.696l4.816-7.28h2.304V59h1.584v1.648h-1.584V63h-1.888v-2.352zm0-6.72h-.032L322.32 59h3.248v-5.072zM360.123 61.71l.507.07c.285.04.568.059.848.055a2.62 2.62 0 00.814-.16c.251-.094.459-.237.626-.43.179-.2.293-.475.342-.823.036-.254.02-.488-.046-.702a1.462 1.462 0 00-.325-.563 1.681 1.681 0 00-.526-.397 2.024 2.024 0 00-.65-.204c-.465-.065-.869.013-1.212.233-.344.221-.604.54-.781.957l-1.726-.711c.149-.367.355-.688.62-.963.277-.284.59-.515.938-.692a3.94 3.94 0 011.169-.385c.419-.07.85-.075 1.294-.012a4.57 4.57 0 011.349.4c.426.188.784.438 1.075.748.302.301.521.655.658 1.062.137.407.17.864.098 1.371a2.587 2.587 0 01-.781 1.538c-.425.415-.954.653-1.587.714l-.005.032c.668.234 1.178.623 1.533 1.169.366.536.5 1.153.402 1.85-.082.58-.269 1.071-.562 1.472a3.114 3.114 0 01-1.055.95c-.41.233-.857.386-1.341.458a4.67 4.67 0 01-1.441.024 5.583 5.583 0 01-1.324-.348 4.073 4.073 0 01-1.108-.624 3.651 3.651 0 01-.819-.956 3.85 3.85 0 01-.449-1.29l1.852-.306c.075.463.276.874.603 1.232.337.36.807.582 1.409.667.243.034.49.036.742.007.264-.038.501-.118.712-.24.222-.119.407-.287.556-.503.159-.214.263-.49.31-.828.051-.36.003-.673-.142-.941a1.758 1.758 0 00-.567-.678 2.997 2.997 0 00-.843-.442 4.725 4.725 0 00-.906-.224l-.475-.067.214-1.52zM392.2 75.993l5.381-2.918a5.03 5.03 0 001.082-.755c.302-.28.515-.635.638-1.066.147-.512.094-.966-.159-1.36-.24-.402-.606-.673-1.098-.814-.523-.15-.995-.091-1.415.176-.418.258-.74.643-.964 1.155l-1.72-.792a3.54 3.54 0 01.741-1.136c.314-.32.67-.574 1.067-.76a3.637 3.637 0 011.293-.328c.477-.04.967.011 1.47.156.471.135.904.33 1.296.587.403.26.733.577.992.95.262.365.433.774.514 1.23.093.448.065.934-.085 1.457-.1.349-.241.663-.421.945-.178.27-.387.516-.627.735-.23.223-.488.426-.774.61a9.034 9.034 0 01-.875.499l-3.998 2.099 4.906 1.407-.485 1.692-7.244-2.078.485-1.691zM286.369 60.765l.507-.071c.286-.04.563-.1.831-.181a2.63 2.63 0 00.739-.379c.214-.16.375-.354.483-.585.117-.242.151-.538.102-.887a1.584 1.584 0 00-.239-.661 1.45 1.45 0 00-.467-.451 1.68 1.68 0 00-.615-.237 2.017 2.017 0 00-.681-.017c-.465.065-.832.251-1.101.558a2.057 2.057 0 00-.487 1.135l-1.855-.208c.042-.393.152-.759.331-1.096.188-.35.424-.658.71-.924.295-.279.634-.51 1.018-.693a4.221 4.221 0 011.24-.368 4.581 4.581 0 011.408.012 3.27 3.27 0 011.239.424c.374.206.682.486.926.84.243.353.401.783.472 1.29a2.591 2.591 0 01-.327 1.694c-.294.515-.737.89-1.329 1.124l.004.032c.706.04 1.305.274 1.795.7.5.415.799.971.897 1.668.082.581.037 1.104-.135 1.57-.16.464-.411.866-.751 1.204-.33.338-.717.608-1.163.81a4.665 4.665 0 01-1.379.42 5.587 5.587 0 01-1.369.031 4.09 4.09 0 01-1.237-.295 3.674 3.674 0 01-1.051-.692 3.877 3.877 0 01-.787-1.117l1.697-.805c.2.425.506.764.919 1.019.423.252.936.337 1.538.252.243-.034.481-.1.715-.198a2 2 0 00.619-.426c.18-.176.311-.388.395-.637.094-.25.117-.544.07-.882-.051-.36-.183-.648-.396-.866a1.752 1.752 0 00-.732-.495 2.983 2.983 0 00-.932-.192 4.737 4.737 0 00-.933.034l-.475.067-.214-1.52zM250.986 75.384l3.017-5.326c.244-.425.417-.83.518-1.214.108-.397.1-.81-.023-1.241-.147-.513-.433-.87-.856-1.07-.417-.213-.871-.25-1.363-.108-.523.15-.892.45-1.107.9-.218.44-.286.936-.205 1.49l-1.879.24a3.546 3.546 0 01.027-1.357c.097-.438.264-.841.502-1.21.239-.367.546-.688.923-.963a4.044 4.044 0 011.329-.647 4.729 4.729 0 011.41-.188c.48.007.928.1 1.346.28.414.17.777.426 1.086.77.317.331.55.758.7 1.28.1.35.148.69.144 1.025a3.832 3.832 0 01-.142.956c-.077.31-.188.62-.333.928-.138.294-.297.59-.478.886l-2.278 3.899 4.906-1.407.485 1.692-7.244 2.077-.485-1.692zM324.432 585.256h5.232v1.696l-4.816 7.28h-2.304v-7.328h-1.584v-1.648h1.584v-2.352h1.888v2.352zm0 6.72h.032l3.216-5.072h-3.248v5.072zM363.307 583.747l-.507.072c-.285.04-.562.1-.831.181a2.635 2.635 0 00-.738.378c-.215.16-.376.355-.483.585-.117.243-.151.539-.102.887.036.254.115.474.238.661.124.188.279.338.468.452.178.115.382.194.615.236.221.045.448.05.681.018.465-.066.831-.252 1.101-.559.269-.307.431-.685.487-1.135l1.854.208a2.978 2.978 0 01-.33 1.097 3.591 3.591 0 01-.71.924 3.95 3.95 0 01-1.018.692 4.221 4.221 0 01-1.241.368 4.537 4.537 0 01-1.407-.012 3.253 3.253 0 01-1.239-.424 2.68 2.68 0 01-.926-.839c-.244-.353-.401-.784-.472-1.291a2.586 2.586 0 01.327-1.694c.294-.515.737-.89 1.329-1.124l-.005-.031c-.706-.041-1.304-.275-1.795-.701-.5-.415-.799-.971-.897-1.668-.081-.581-.036-1.104.135-1.57.161-.464.412-.865.752-1.204.33-.337.717-.607 1.163-.81a4.67 4.67 0 011.378-.42 5.602 5.602 0 011.37-.031 4.1 4.1 0 011.237.295 3.64 3.64 0 011.05.693c.312.301.574.673.787 1.117l-1.696.804a2.356 2.356 0 00-.919-1.018c-.423-.253-.936-.337-1.538-.253-.243.035-.481.1-.715.198-.244.109-.45.252-.619.426-.18.176-.312.389-.395.637-.094.251-.118.545-.07.883.05.359.182.647.396.865.205.23.449.395.732.495.285.111.596.175.932.192.326.019.636.008.932-.034l.476-.067.213 1.521zM399.69 567.764l-3.017 5.326a5.026 5.026 0 00-.517 1.213c-.108.397-.1.811.023 1.242.147.513.432.869.856 1.069.416.214.871.25 1.363.109.523-.15.892-.45 1.107-.9.217-.44.286-.936.205-1.49l1.879-.239c.078.466.069.918-.028 1.356a3.624 3.624 0 01-.502 1.209 3.628 3.628 0 01-.922.963 4.055 4.055 0 01-1.329.648 4.738 4.738 0 01-1.411.188 3.494 3.494 0 01-1.345-.28 2.945 2.945 0 01-1.086-.77c-.317-.331-.551-.758-.701-1.281-.1-.349-.147-.69-.143-1.024.007-.324.054-.643.142-.956.077-.311.188-.62.333-.928.137-.295.297-.59.478-.886l2.278-3.899-4.907 1.407-.485-1.692 7.244-2.077.485 1.692zM289.554 585.587l-.507-.072a5.534 5.534 0 00-.849-.054 2.606 2.606 0 00-.814.16c-.25.094-.459.237-.626.429-.179.201-.293.476-.342.824-.035.254-.02.488.047.702.067.214.175.401.325.562.139.16.314.292.526.397.201.104.417.172.65.205.464.065.869-.013 1.212-.234.343-.221.604-.54.781-.956l1.726.711a3.012 3.012 0 01-.62.963c-.277.284-.59.515-.938.692a3.92 3.92 0 01-1.169.385 4.183 4.183 0 01-1.294.012 4.55 4.55 0 01-1.35-.4 3.257 3.257 0 01-1.074-.748 2.692 2.692 0 01-.659-1.062c-.136-.407-.169-.864-.098-1.371a2.587 2.587 0 01.782-1.538c.424-.415.953-.653 1.587-.715l.004-.031c-.667-.234-1.178-.624-1.532-1.169-.366-.536-.5-1.153-.402-1.85.081-.581.269-1.072.562-1.472a3.11 3.11 0 011.054-.95 3.81 3.81 0 011.341-.458 4.656 4.656 0 011.442-.024c.475.067.916.183 1.324.348.409.154.778.362 1.108.624.319.26.592.579.819.955.217.375.366.806.449 1.291l-1.853.305a2.359 2.359 0 00-.602-1.231c-.337-.36-.807-.582-1.409-.667a2.876 2.876 0 00-.742-.007 1.99 1.99 0 00-.713.239c-.221.12-.406.287-.555.503-.16.215-.263.491-.311.829-.05.36-.002.673.143.941.133.278.322.503.567.678.243.185.524.332.843.441.308.108.61.183.906.225l.475.066-.214 1.522zM258.476 572.668l-5.38 2.918a5.008 5.008 0 00-1.082.755 2.27 2.27 0 00-.639 1.065c-.147.513-.094.966.159 1.361.24.401.606.673 1.099.814.523.15.994.091 1.415-.177.418-.257.739-.642.964-1.155l1.72.793a3.539 3.539 0 01-.742 1.135 3.643 3.643 0 01-1.066.76 3.635 3.635 0 01-1.293.328 4.046 4.046 0 01-1.47-.155 4.71 4.71 0 01-1.296-.588 3.494 3.494 0 01-.993-.95 2.95 2.95 0 01-.513-1.229c-.093-.449-.065-.935.085-1.457.1-.349.24-.664.421-.945.177-.271.386-.516.627-.736a5.03 5.03 0 01.774-.61c.273-.177.564-.343.875-.498l3.998-2.099-4.907-1.407.486-1.692 7.244 2.077-.486 1.692z" fill="#000"/><path fill-rule="evenodd" clip-rule="evenodd" d="M325 626c166.79 0 302-135.21 302-302S491.79 22 325 22 23 157.21 23 324s135.21 302 302 302zm0-22c154.64 0 280-125.36 280-280S479.64 44 325 44 45 169.36 45 324s125.36 280 280 280z" fill="#fff"/></svg>